<?xml version="1.0" encoding="utf-8"?>
<svg version="1.1" id="Capa_1" xmlns="http://www.w3.org/2000/svg" xmlns:xlink="http://www.w3.org/1999/xlink" x="0px" y="0px"
	 width="47px" height="47px" viewBox="0 0 47 47" enable-background="new 0 0 47 47" xml:space="preserve">
<g>
	<defs>
		<circle id="SVGID_1_" cx="23.5" cy="23.5" r="23.416"/>
	</defs>
	<clipPath id="SVGID_2_">
		<use xlink:href="#SVGID_1_"  overflow="visible"/>
	</clipPath>
	<path clip-path="url(#SVGID_2_)" fill="#ED8134" d="M36.826,35.34l-4.078,1.215l-13.071,3.881l-4.341,1.285l-0.35,0.104
		c-0.222,0.093-0.448,0.159-0.682,0.206c-0.029,0.005-0.056,0.011-0.087,0.016c-0.038,0.005-0.077,0.013-0.121,0.018
		c-0.745,0.091-1.528-0.05-2.236-0.466c-0.013-0.008-0.021-0.012-0.033-0.021c-0.653-0.399-1.152-0.974-1.466-1.636
		c-0.082-0.165-0.147-0.334-0.203-0.51l-0.021-0.082l-0.073-0.295L8.13,31.471L4.273,16.315l-0.156-0.612l-0.009-0.041
		c-0.155-0.604,0.183-1.247,0.759-1.42c0.584-0.183,1.205,0.173,1.378,0.794h0.004l0.585,1.999l4.543,15.658l0.591,2.046
		l1.258,4.321l1.169-2.167l1.112-2.068l7.163-13.317l9.354,2.638l0.174,0.051l0.464,0.129c0.227,0.049,0.468,0.07,0.712,0.07
		c0.286,0,0.563-0.033,0.83-0.098c0.686-0.165,1.3-0.535,1.782-1.042l0.309-0.323l7.37-7.764l3.423-3.604
		c0,0,0.016-1.244-0.296-1.444c-0.402-0.258-1.861,0.44-1.861,0.44l-3.278,3.444l-4.84,5.099l-1.343,1.415
		c-0.083,0.092-0.163,0.178-0.251,0.265c-0.455,0.435-1.008,0.753-1.628,0.905c-0.274,0.067-0.559,0.104-0.854,0.104
		c-0.254,0-0.504-0.027-0.748-0.078l-0.366-0.101l-1.901-0.538l-5.922-1.671l-15.167-4.28c-0.449-0.146-0.777-0.588-0.777-1.114
		c0-0.523,0.328-0.968,0.777-1.114l-0.003-0.021l21.585-5.426L30.197,7.37l0.055,0.037l-0.02,0.036l0.063-0.014l2.231-0.562
		l14.362-3.61c-0.701-3.136-3.203-5.535-6.298-5.924h-1.775H35.67h-7.852H12.857H7.342v0.014c-2.177,0-4.13,0.99-5.483,2.563
		C1.352,0.504,0.928,1.186,0.612,1.924C0.217,2.843-0.017,3.861-0.039,4.928v0.4v7.35v2.379v0.044v23.904v0.403
		c0.027,1.227,0.326,2.382,0.836,3.404c0.51,1.021,1.233,1.912,2.104,2.6c1.114,0.891,2.475,1.452,3.951,1.554h0.979h1.144h1.384
		h1.717h1.397h2.05h24.057l-0.005-0.024c0.043,0.004,0.088,0.004,0.129,0.004c4.083,0,7.385-3.481,7.385-7.779v-6.868l-2.747,0.815
		L36.826,35.34z"/>
</g>
</svg>
