<?xml version="1.0" encoding="utf-8"?>
<!-- Generator: Adobe Illustrator 16.0.0, SVG Export Plug-In . SVG Version: 6.00 Build 0)  -->
<!DOCTYPE svg PUBLIC "-//W3C//DTD SVG 1.1//EN" "http://www.w3.org/Graphics/SVG/1.1/DTD/svg11.dtd">
<svg version="1.1" id="Capa_1" xmlns="http://www.w3.org/2000/svg" xmlns:xlink="http://www.w3.org/1999/xlink" x="0px" y="0px"
	 width="218.5px" height="41.5px" viewBox="0 0 218.5 41.5" enable-background="new 0 0 218.5 41.5" xml:space="preserve">
<g>
	<g>
		<path fill="#F7F3F0" d="M14.487,43.5c-3.293,0-5.807-0.922-7.542-2.766C5.21,38.89,4.24,36.371,4.036,33.176l5.226-1.246
			c0.259,4.986,2.001,7.479,5.226,7.479c2.612,0,3.919-1.246,3.919-3.74c0-0.739-0.105-1.425-0.316-2.055s-0.534-1.208-0.97-1.733
			c-0.436-0.526-0.83-0.948-1.184-1.267c-0.354-0.317-0.837-0.711-1.449-1.178l-6.532-4.987c-1.197-0.896-2.153-2.035-2.867-3.418
			c-0.715-1.384-1.072-2.958-1.072-4.724c0-2.571,0.837-4.617,2.511-6.136c1.674-1.52,3.892-2.279,6.654-2.279
			c2.967,0,5.324,0.691,7.073,2.074c1.748,1.383,2.827,3.341,3.235,5.873c0.041,0.272,0.088,0.649,0.143,1.13l-5.226,1.246
			c-0.014-0.221-0.048-0.551-0.102-0.993c-0.231-1.584-0.753-2.854-1.562-3.808c-0.811-0.955-1.997-1.432-3.563-1.432
			c-1.252,0-2.218,0.334-2.898,1.003s-1.021,1.601-1.021,2.795c0,1.961,0.871,3.604,2.613,4.929l6.531,4.986
			c3.483,2.688,5.226,5.902,5.226,9.642c0,2.559-0.827,4.559-2.48,6S17.277,43.5,14.487,43.5z"/>
		<path fill="#F7F3F0" d="M27.449,14.477V9.49h5.226v4.986H27.449z M27.449,43.149V18.216h5.226v24.934H27.449z"/>
		<path fill="#F7F3F0" d="M37.676,43.149V18.216h5.226v2.825c1.863-2.117,4.034-3.176,6.511-3.176c1.252,0,2.171,0.264,2.756,0.789
			c0.585,0.526,0.979,1.36,1.184,2.503c0.857-1.077,1.783-1.896,2.776-2.454c0.993-0.558,2.245-0.838,3.756-0.838
			c0.436,0,0.827,0.043,1.174,0.127c0.347,0.085,0.649,0.186,0.908,0.302c0.259,0.117,0.486,0.296,0.684,0.536
			s0.36,0.461,0.49,0.662c0.129,0.201,0.237,0.49,0.326,0.867s0.153,0.688,0.194,0.935c0.041,0.247,0.074,0.61,0.102,1.091
			s0.041,0.857,0.041,1.13s0,0.682,0,1.227c0,0.117,0,0.208,0,0.273v18.135h-5.226V24.956c0-0.064,0-0.169,0-0.312
			c0-0.429-0.007-0.76-0.021-0.993c-0.014-0.234-0.058-0.503-0.133-0.809c-0.074-0.305-0.207-0.529-0.397-0.672
			s-0.442-0.215-0.755-0.215c-0.531,0-1.063,0.101-1.593,0.302c-0.53,0.202-0.942,0.396-1.235,0.585
			c-0.292,0.188-0.656,0.451-1.092,0.789v19.518h-5.225V25.054c0-0.078,0-0.195,0-0.351c0-0.364,0-0.637,0-0.818
			s-0.024-0.419-0.072-0.711s-0.112-0.51-0.193-0.652c-0.082-0.144-0.212-0.272-0.389-0.39s-0.395-0.176-0.652-0.176
			c-1.279,0-2.586,0.526-3.919,1.578v19.615H37.676z"/>
		<path fill="#F7F3F0" d="M72.11,43.5c-1.143,0-2.062-0.387-2.755-1.159c-0.694-0.772-1.042-1.73-1.042-2.873V18.216h5.226v19.732
			c0,0.52,0.167,0.941,0.5,1.267c0.334,0.324,0.766,0.487,1.297,0.487c0.285,0,0.564-0.033,0.837-0.098
			c0.271-0.065,0.541-0.179,0.806-0.341c0.266-0.163,0.473-0.293,0.623-0.39c0.149-0.098,0.363-0.264,0.643-0.497
			s0.452-0.376,0.521-0.429V18.216h5.226v24.934h-5.226v-2.688c-0.517,0.429-0.895,0.74-1.133,0.936
			c-0.238,0.194-0.602,0.458-1.092,0.788c-0.49,0.332-0.922,0.572-1.296,0.722c-0.375,0.149-0.841,0.285-1.398,0.409
			C73.287,43.438,72.709,43.5,72.11,43.5z"/>
		<path fill="#F7F3F0" d="M88.543,43.149V8.243h5.226v34.906H88.543z"/>
		<path fill="#F7F3F0" d="M105.668,43.5c-2.055,0-3.548-0.5-4.479-1.5c-0.933-1-1.412-2.513-1.439-4.538V21.956h-2.613v-3.74h2.613
			V9.49h5.226v8.726h3.919v3.74h-3.919v14.551c0,1,0.143,1.733,0.428,2.201c0.286,0.468,0.864,0.701,1.735,0.701
			c0.381,0,0.967-0.064,1.756-0.194v4.052C107.587,43.422,106.512,43.5,105.668,43.5z"/>
		<path fill="#F7F3F0" d="M117.263,43.5c-1.457,0-2.691-0.601-3.705-1.802s-1.521-2.555-1.521-4.062
			c0-1.208,0.214-2.305,0.643-3.292c0.429-0.986,0.881-1.775,1.357-2.366s1.272-1.201,2.389-1.831
			c1.115-0.63,1.959-1.062,2.53-1.296c0.572-0.233,1.565-0.616,2.98-1.149c0.245-0.09,0.429-0.162,0.551-0.214v-1.792
			c0-1.26-0.183-2.236-0.551-2.932c-0.367-0.694-1.055-1.042-2.062-1.042c-0.898,0-1.541,0.295-1.929,0.887
			c-0.388,0.591-0.609,1.405-0.663,2.444c-0.014,0.143-0.021,0.356-0.021,0.643h-5.226c0.027-2.39,0.728-4.292,2.102-5.707
			c1.375-1.416,3.287-2.124,5.736-2.124c2.436,0,4.352,0.718,5.746,2.153c1.395,1.435,2.092,3.327,2.092,5.678v11.22
			c0,2.598,0.225,4.675,0.674,6.233h-5.205l-0.694-3.74c-0.271,0.52-0.493,0.923-0.663,1.208c-0.17,0.286-0.418,0.64-0.745,1.062
			c-0.326,0.422-0.652,0.747-0.979,0.974c-0.326,0.228-0.735,0.426-1.225,0.595C118.385,43.415,117.848,43.5,117.263,43.5z
			 M119.875,39.409c0.367,0,0.725-0.104,1.072-0.312c0.347-0.208,0.608-0.409,0.785-0.604c0.177-0.195,0.395-0.455,0.653-0.779
			c0.041-0.064,0.075-0.11,0.102-0.137v-6.896c-0.218,0.144-0.578,0.364-1.081,0.662c-0.504,0.299-0.905,0.543-1.205,0.73
			c-0.299,0.188-0.66,0.448-1.081,0.779c-0.422,0.331-0.749,0.649-0.98,0.955c-0.231,0.305-0.436,0.679-0.612,1.12
			s-0.265,0.902-0.265,1.383C117.263,38.377,118.133,39.409,119.875,39.409z"/>
		<path fill="#F7F3F0" d="M132.429,43.149V8.243h3.919l9.145,21.582V8.243h5.226v34.906h-3.715l-9.349-23.219v23.219H132.429z"/>
		<path fill="#F7F3F0" d="M163.107,43.5c-1.265,0-2.364-0.208-3.296-0.623c-0.933-0.416-1.674-0.958-2.225-1.627
			c-0.552-0.669-0.997-1.525-1.337-2.571c-0.341-1.045-0.575-2.091-0.705-3.136c-0.129-1.045-0.207-2.263-0.234-3.652
			c-0.041-1.091-0.041-2.182,0-3.272c0.041-1.299,0.133-2.451,0.275-3.458c0.143-1.006,0.391-1.983,0.745-2.932
			c0.354-0.947,0.813-1.727,1.378-2.337s1.307-1.101,2.225-1.471c0.919-0.37,1.99-0.556,3.215-0.556c1.116,0,2.1,0.14,2.95,0.419
			c0.85,0.279,1.558,0.701,2.122,1.267c0.565,0.564,1.035,1.191,1.409,1.88s0.656,1.522,0.847,2.503s0.323,1.944,0.398,2.893
			c0.074,0.948,0.112,2.039,0.112,3.272v0.584h-10.451v1.247c0,0.169,0,0.435,0,0.798c-0.027,0.481-0.031,0.978-0.011,1.491
			c0.021,0.513,0.045,1.016,0.072,1.509c0.026,0.494,0.102,0.965,0.224,1.412c0.123,0.448,0.272,0.842,0.449,1.179
			c0.177,0.338,0.426,0.604,0.745,0.799c0.32,0.194,0.697,0.292,1.133,0.292c0.545,0,0.993-0.101,1.348-0.302
			c0.354-0.201,0.615-0.503,0.786-0.906c0.17-0.401,0.288-0.805,0.356-1.207s0.109-0.909,0.123-1.52v-1.052h5.185v0.993
			c-0.122,2.662-0.81,4.675-2.062,6.039C167.633,42.818,165.707,43.5,163.107,43.5z M160.536,28.189h5.185v-1.5
			c-0.014-0.662-0.055-1.24-0.122-1.733c-0.068-0.493-0.188-0.986-0.357-1.48c-0.171-0.493-0.433-0.87-0.786-1.13
			s-0.789-0.39-1.307-0.39c-0.53,0-0.977,0.137-1.337,0.409s-0.626,0.666-0.796,1.179s-0.289,1.016-0.357,1.51
			c-0.068,0.493-0.108,1.084-0.122,1.772V28.189z"/>
		<path fill="#F7F3F0" d="M177.621,43.149l-4.838-24.934h4.634l2.898,18.935l2.735-18.935h4.776l2.775,18.739l2.858-18.739h4.653
			l-5.062,24.934h-4.817l-2.776-17.181l-2.816,17.181H177.621z"/>
		<path fill="#F7F3F0" d="M207.77,43.5c-2.15,0-3.875-0.61-5.174-1.831c-1.3-1.221-2.188-2.805-2.664-4.753l3.919-1.247
			c0.939,2.494,2.245,3.74,3.919,3.74c0.83,0,1.474-0.217,1.929-0.652c0.456-0.435,0.685-1.049,0.685-1.841
			c0-1.155-0.436-2.116-1.307-2.883l-5.226-3.74c-0.585-0.376-1.075-0.73-1.47-1.062s-0.796-0.736-1.204-1.217
			s-0.718-1.02-0.929-1.617c-0.211-0.597-0.316-1.246-0.316-1.948c0-2.129,0.711-3.759,2.133-4.889s3.324-1.695,5.705-1.695
			c1.13,0,2.15,0.173,3.063,0.517c0.911,0.345,1.677,0.828,2.296,1.451s1.13,1.314,1.531,2.074s0.718,1.607,0.949,2.542
			l-3.919,1.247c-0.191-0.493-0.382-0.919-0.572-1.276c-0.19-0.356-0.445-0.743-0.766-1.158c-0.319-0.416-0.697-0.737-1.133-0.965
			c-0.436-0.227-0.918-0.341-1.449-0.341c-0.83,0-1.473,0.218-1.929,0.653c-0.456,0.435-0.684,1.048-0.684,1.84
			c0,0.779,0.436,1.48,1.307,2.104l5.226,3.739c0.585,0.442,1.085,0.867,1.5,1.276s0.819,0.883,1.214,1.422s0.694,1.14,0.898,1.802
			s0.307,1.37,0.307,2.123c0,2.13-0.711,3.76-2.134,4.89C212.053,42.935,210.151,43.5,207.77,43.5z"/>
	</g>
</g>
</svg>
